<svg width="200" height="100" viewBox="0 0 352 179" fill="none" xmlns="http://www.w3.org/2000/svg">
<g style="mix-blend-mode:lighten" clip-path="url(#clip0_140_1131)">
<path d="M230.503 -4.52995e-06C235.465 2.91196 236.834 7.53684 235.123 12.6756C233.412 18.3282 231.358 24.1521 228.278 29.1196C214.93 49.5033 201.07 69.5445 183.957 87.0163C177.112 94.0392 176.77 102.946 174.374 113.053C177.112 111.682 178.652 110.997 180.364 110.312C182.93 109.455 185.497 108.085 188.235 107.914C194.225 107.4 196.62 110.141 195.765 115.965C194.909 122.302 193.198 128.469 192 134.807C191.658 137.033 192 139.26 192 141.144C196.278 143.543 199.529 142.001 202.096 139.603C208.257 134.293 213.904 128.64 220.064 123.159C222.289 121.275 224.856 119.733 227.594 118.363C232.385 112.71 237.176 107.057 245.904 109.284C250.866 110.655 252.235 114.594 251.037 119.219C257.369 120.589 257.882 121.275 257.027 126.927C256.342 130.867 256.171 134.635 260.449 138.404C272.599 131.895 284.064 124.015 296.043 115.622C299.807 115.279 300.321 118.363 299.979 121.617C299.294 127.441 297.925 133.265 296.898 139.603C301.519 133.95 305.797 128.469 310.075 123.159C313.84 124.187 316.578 124.872 320.513 125.9C320.342 131.21 320 136.52 319.658 143.029C324.963 139.089 329.583 135.663 333.861 132.58C342.075 134.293 343.444 136.006 343.615 143.714C343.786 147.14 344.471 150.566 344.813 153.82C345.326 158.616 347.722 161.357 352.513 161.357C352.513 162.213 352.513 163.07 352.513 163.926C345.497 168.037 339.166 164.783 337.455 155.876C336.599 151.251 336.257 146.626 335.401 140.631C333.005 142.515 331.294 143.714 329.583 145.084C327.529 146.968 325.818 149.367 323.422 150.566C321.027 151.765 317.091 153.306 315.551 152.107C313.155 150.566 311.273 146.968 310.588 143.885C309.904 140.973 311.102 137.719 311.615 133.608C301.861 139.774 300.663 152.621 290.053 157.417C285.604 152.107 287.829 146.626 288.684 141.487C289.54 136.177 290.738 130.696 290.738 124.529C287.829 126.585 285.091 128.811 282.182 130.867C276.706 134.807 271.401 139.26 265.412 142.344C258.567 145.941 256.171 144.913 250.866 139.089C249.84 138.061 249.155 136.691 248.471 135.663C228.62 147.311 228.62 147.311 220.064 141.144C220.064 138.233 220.064 134.978 220.064 131.21C214.075 136.006 208.941 140.631 203.294 144.57C200.727 146.455 197.134 147.654 193.882 147.996C187.551 148.681 184.471 146.283 183.957 139.945C183.615 135.492 184.471 131.038 185.155 126.585C185.668 123.159 186.524 119.562 187.551 115.108C180.364 116.136 175.401 119.219 172.834 124.358C170.267 129.325 169.583 135.321 167.872 141.487C165.818 141.316 163.936 141.316 161.198 141.144C162.396 135.321 163.251 130.524 164.278 125.557C163.765 125.214 163.422 125.043 162.909 124.7C159.487 127.441 156.064 130.182 152.471 132.58C147.508 136.177 142.717 140.117 137.241 142.686C130.396 145.941 127.658 144.742 122.866 138.746C122.182 137.89 121.497 137.033 120.471 135.663C118.588 137.033 116.706 138.404 114.824 139.603C111.914 141.316 109.005 143.371 105.925 144.57C101.305 146.283 96.8556 145.255 93.4331 141.83C90.3529 138.746 91.0374 134.464 92.9198 131.038C96.6845 124.7 100.791 118.363 104.898 112.367C106.096 110.655 108.15 109.627 110.032 108.77C117.39 105.344 123.722 109.627 124.064 118.191C125.604 118.705 127.144 119.219 129.027 119.733C129.198 125.386 129.54 130.867 129.882 138.233C134.16 136.177 136.727 135.321 139.123 133.779C145.283 130.011 151.102 125.557 157.604 122.474C167.358 117.849 167.529 109.284 169.241 99.8632C166.332 100.891 164.449 101.576 162.225 102.433C159.144 99.0067 159.658 95.7521 163.251 93.8679C172.492 89.243 175.401 80.8498 178.139 71.9426C183.273 55.3273 190.631 39.5684 200.043 25.0086C206.717 14.7311 213.561 4.111 225.54 -1.02776C227.08 -4.52995e-06 228.791 -4.52995e-06 230.503 -4.52995e-06ZM184.813 77.4239C186.011 76.5675 186.695 76.3962 187.037 75.8823C196.278 64.2344 205.69 52.5866 214.588 40.5962C219.893 33.4019 224 25.3512 228.278 17.4718C229.818 14.5598 229.989 10.9627 231.016 7.19425C213.733 9.93492 187.38 56.1837 184.813 77.4239ZM98.3957 139.603C109.519 139.945 113.283 131.381 118.588 125.214C117.561 121.96 116.706 119.219 115.679 116.478C107.636 118.705 99.4224 129.497 98.3957 139.603ZM243.85 114.252C234.61 121.446 228.278 128.64 225.198 139.603C236.663 139.945 240.77 132.066 245.561 125.557C245.048 122.131 244.535 119.048 243.85 114.252Z" fill="#D26333"/>
<path d="M4.4492 76.3962C6.50268 83.4191 13.3476 85.6459 19.3369 89.5856C9.06952 91.8124 4.96257 89.7569 1.54011 81.3636C-1.5401 73.4842 -0.17112 68.3454 7.18717 63.8919C10.7808 61.8364 14.8877 59.9521 18.8235 59.0957C43.4652 54.4708 67.9358 55.4986 92.4064 60.466C98.3957 61.6651 100.278 63.5493 103.016 69.8871C89.8396 68.0029 76.492 65.9474 62.631 63.8919C56.4706 79.6507 50.4813 94.7244 44.3209 110.312C53.2193 113.738 64 110.826 69.9893 120.247C60.4064 119.048 51.1658 116.307 40.8984 117.506C35.9358 131.21 28.4064 144.056 27.3797 158.788C26.8663 165.297 29.262 171.977 30.4599 179C27.7219 178.829 25.4973 176.602 23.9572 174.033C20.3636 168.38 18.4813 162.213 20.1925 155.704C22.7594 146.283 25.8396 136.862 28.7487 127.612C29.6043 124.872 30.631 122.131 32 118.363C25.4973 118.705 20.1925 119.219 14.2032 119.562C13.861 116.992 13.5187 115.108 13.1765 112.367C20.7059 112.025 27.5508 111.682 34.3957 111.34C41.5829 96.4373 47.4011 81.3636 51.1658 65.7761C38.8449 61.1512 9.92514 67.8316 4.4492 76.3962Z" fill="#D26333"/>
</g>
<defs>
<clipPath id="clip0_140_1131">
<rect width="352" height="179" fill="white"/>
</clipPath>
</defs>
</svg>
