<svg width="78" height="75" viewBox="0 0 78 75" fill="none" xmlns="http://www.w3.org/2000/svg">
<path d="M60.2644 27.6863C62.0013 24.5517 65.1593 21.182 70.5278 17.969C72.0279 17.107 72.9752 15.5397 72.9752 13.894C72.9752 10.5243 69.5015 8.17338 66.3435 9.58395C57.1854 13.5806 41.9482 23.533 41.9482 44.143C41.9482 53.3901 49.4484 60.8348 58.7644 60.8348C68.0804 60.8348 75.5016 53.3901 75.5016 44.2214C75.5016 35.5228 68.7909 28.47 60.2644 27.6863Z" fill="#FACFBE"/>
<path d="M18.7372 27.6863C20.4741 24.5517 23.6321 21.182 29.0006 17.969C30.5007 17.107 31.4481 15.5397 31.4481 13.894C31.4481 10.5243 27.9743 8.17338 24.8163 9.58395C15.7372 13.5806 0.5 23.533 0.5 44.143C0.5 53.3901 8.00017 60.8348 17.2372 60.8348C26.4743 60.8348 34.0534 53.3901 34.0534 44.143C34.0534 35.5228 27.3427 28.47 18.7372 27.6863Z" fill="#FACFBE"/>
</svg>
